<?xml version="1.0" encoding="UTF-8" standalone="no"?>
<svg
   viewBox="0 0 48 48"
   version="1.1"
   id="svg146746"
   sodipodi:docname="curve.svg"
   inkscape:version="1.1 (c68e22c387, 2021-05-23)"
   xmlns:inkscape="http://www.inkscape.org/namespaces/inkscape"
   xmlns:sodipodi="http://sodipodi.sourceforge.net/DTD/sodipodi-0.dtd"
   xmlns:xlink="http://www.w3.org/1999/xlink"
   xmlns="http://www.w3.org/2000/svg"
   xmlns:svg="http://www.w3.org/2000/svg"
   xmlns:rdf="http://www.w3.org/1999/02/22-rdf-syntax-ns#"
   xmlns:cc="http://creativecommons.org/ns#"
   xmlns:dc="http://purl.org/dc/elements/1.1/">
  <sodipodi:namedview
     id="namedview146748"
     pagecolor="#ffffff"
     bordercolor="#666666"
     borderopacity="1.0"
     inkscape:pageshadow="2"
     inkscape:pageopacity="0.0"
     inkscape:pagecheckerboard="0"
     showgrid="false"
     inkscape:snap-global="false"
     inkscape:zoom="22.627417"
     inkscape:cx="12.263883"
     inkscape:cy="22.561126"
     inkscape:window-width="2880"
     inkscape:window-height="1557"
     inkscape:window-x="-8"
     inkscape:window-y="-8"
     inkscape:window-maximized="1"
     inkscape:current-layer="svg146746" />
  <defs
     id="defs146674">
    <style
       id="style146622">.cls-1{isolation:isolate;}.cls-2{fill:url(#radial-gradient);}.cls-15,.cls-16,.cls-18,.cls-3,.cls-9{mix-blend-mode:multiply;}.cls-10,.cls-11,.cls-21,.cls-4,.cls-5{fill:none;}.cls-4{stroke:#729fcf;}.cls-21,.cls-4,.cls-5{stroke-miterlimit:10;}.cls-10,.cls-11,.cls-4,.cls-5{stroke-width:0.7px;}.cls-21,.cls-5{stroke:#3465a4;}.cls-6{fill:#3465a4;}.cls-7{fill:url(#linear-gradient);}.cls-8{fill:url(#linear-gradient-2);}.cls-9{fill:url(#linear-gradient-3);}.cls-10,.cls-11{stroke-linecap:round;stroke-linejoin:round;}.cls-10{stroke:url(#linear-gradient-4);}.cls-11{stroke:url(#linear-gradient-5);}.cls-12{fill:#231f20;}.cls-13{fill:#204a87;}.cls-14{fill:url(#linear-gradient-6);}.cls-15{fill:url(#linear-gradient-7);}.cls-16{fill:url(#linear-gradient-8);}.cls-17{fill:url(#linear-gradient-9);}.cls-18{fill:url(#linear-gradient-10);}.cls-19{fill:#729fcf;}.cls-20{fill:url(#linear-gradient-11);}.cls-21{stroke-width:0.35px;}.cls-22{fill:url(#linear-gradient-13);}.cls-23{fill:url(#linear-gradient-14);}</style>
    <radialGradient
       id="radial-gradient"
       cx="23.38"
       cy="-64.61"
       r="21.39"
       gradientTransform="matrix(1.11,0,0,0.42,-1.99,64.44)"
       gradientUnits="userSpaceOnUse">
      <stop
         offset="0.03"
         stop-color="#2c2c2c"
         stop-opacity="0.5"
         id="stop146624" />
      <stop
         offset="0.68"
         stop-color="#2c2c2c"
         stop-opacity="0.1"
         id="stop146626" />
      <stop
         offset="0.93"
         stop-color="#2c2c2c"
         stop-opacity="0"
         id="stop146628" />
    </radialGradient>
    <linearGradient
       id="linear-gradient"
       x1="10.71"
       y1="23.77"
       x2="15.85"
       y2="18.62"
       gradientUnits="userSpaceOnUse">
      <stop
         offset="0"
         stop-color="#5c6262"
         id="stop146631" />
      <stop
         offset="1"
         stop-color="#e3e6e1"
         id="stop146633" />
    </linearGradient>
    <linearGradient
       id="linear-gradient-2"
       x1="14.38"
       y1="20.1"
       x2="16.48"
       y2="17.99"
       gradientUnits="userSpaceOnUse">
      <stop
         offset="0.05"
         stop-color="#fff"
         stop-opacity="0"
         id="stop146636" />
      <stop
         offset="0.69"
         stop-color="snow"
         id="stop146638" />
    </linearGradient>
    <linearGradient
       id="linear-gradient-3"
       x1="13.76"
       y1="25.64"
       x2="16.28"
       y2="23.12"
       xlink:href="#linear-gradient"
       gradientTransform="matrix(1.3052451,0,0,1.3052441,-3.7897545,-6.5932345)" />
    <linearGradient
       id="linear-gradient-4"
       x1="5.12"
       y1="15.63"
       x2="15.89"
       y2="15.63"
       gradientUnits="userSpaceOnUse">
      <stop
         offset="0"
         stop-color="#555753"
         id="stop146642" />
      <stop
         offset="1"
         stop-color="#2e3436"
         id="stop146644" />
    </linearGradient>
    <linearGradient
       id="linear-gradient-5"
       x1="4.12"
       y1="20.83"
       x2="27.3"
       y2="20.83"
       xlink:href="#linear-gradient-4"
       gradientTransform="matrix(1.3052451,0,0,1.3052441,-3.7897545,-6.5932345)" />
    <linearGradient
       id="linear-gradient-6"
       x1="27.3"
       y1="27.05"
       x2="21.9"
       y2="32.45"
       gradientUnits="userSpaceOnUse"
       gradientTransform="matrix(1.3674697,0,0,1.3674686,-5.4332879,-8.4150558)">
      <stop
         offset="0"
         stop-color="#729fcf"
         stop-opacity="0.6"
         id="stop146648" />
      <stop
         offset="0.12"
         stop-color="#729fcf"
         id="stop146650" />
      <stop
         offset="1"
         stop-color="#729fcf"
         stop-opacity="0"
         id="stop146652" />
    </linearGradient>
    <linearGradient
       id="linear-gradient-7"
       x1="27.24"
       y1="30.58"
       x2="27.79"
       y2="32.04"
       gradientUnits="userSpaceOnUse">
      <stop
         offset="0"
         stop-color="#7c8081"
         id="stop146655" />
      <stop
         offset="1"
         stop-color="#3465a4"
         stop-opacity="0"
         id="stop146657" />
    </linearGradient>
    <linearGradient
       id="linear-gradient-8"
       x1="27.25"
       y1="34.05"
       x2="26.42"
       y2="32.59"
       xlink:href="#linear-gradient-7"
       gradientTransform="matrix(1.3052451,0,0,1.3052441,-3.7897545,-6.5932345)" />
    <linearGradient
       id="linear-gradient-9"
       x1="26.9"
       y1="26.68"
       x2="19.66"
       y2="33.92"
       gradientUnits="userSpaceOnUse"
       gradientTransform="matrix(1.3052451,0,0,1.3052441,-3.7897545,-6.5932345)">
      <stop
         offset="0"
         stop-color="#dbe6f3"
         id="stop146661" />
      <stop
         offset="1"
         stop-color="#729fcf"
         stop-opacity="0"
         id="stop146663" />
    </linearGradient>
    <linearGradient
       id="linear-gradient-10"
       x1="22.27"
       y1="33.28"
       x2="24.29"
       y2="31.63"
       gradientUnits="userSpaceOnUse"
       gradientTransform="matrix(1.3052451,0,0,1.3052441,-3.7897545,-6.5932345)">
      <stop
         offset="0"
         stop-color="#7c8081"
         id="stop146666" />
      <stop
         offset="1"
         stop-color="#fff"
         id="stop146668" />
    </linearGradient>
    <linearGradient
       id="linear-gradient-11"
       x1="5.69"
       y1="28.55"
       x2="3.64"
       y2="26.5"
       xlink:href="#linear-gradient-2" />
    <linearGradient
       id="linear-gradient-13"
       x1="24.36"
       y1="11.96"
       x2="22.32"
       y2="9.91"
       xlink:href="#linear-gradient-2" />
    <linearGradient
       id="linear-gradient-14"
       x1="43.04"
       y1="28.55"
       x2="41"
       y2="26.5"
       xlink:href="#linear-gradient-2" />
    <linearGradient
       inkscape:collect="always"
       xlink:href="#linear-gradient"
       id="linearGradient146760"
       gradientUnits="userSpaceOnUse"
       x1="10.71"
       y1="23.77"
       x2="15.85"
       y2="18.62"
       gradientTransform="matrix(1.3052451,0,0,1.3052441,-3.7897545,-6.5932345)" />
    <linearGradient
       inkscape:collect="always"
       xlink:href="#linear-gradient-2"
       id="linearGradient146762"
       gradientUnits="userSpaceOnUse"
       x1="14.38"
       y1="20.1"
       x2="16.48"
       y2="17.99"
       gradientTransform="matrix(1.3052451,0,0,1.3052441,-3.7897545,-6.5932345)" />
    <linearGradient
       inkscape:collect="always"
       xlink:href="#linear-gradient-4"
       id="linearGradient146764"
       gradientUnits="userSpaceOnUse"
       x1="5.12"
       y1="15.63"
       x2="15.89"
       y2="15.63" />
    <linearGradient
       inkscape:collect="always"
       xlink:href="#linear-gradient-7"
       id="linearGradient146766"
       gradientUnits="userSpaceOnUse"
       x1="27.24"
       y1="30.58"
       x2="27.79"
       y2="32.04"
       gradientTransform="matrix(1.3052451,0,0,1.3052441,-3.7897545,-6.5932345)" />
    <linearGradient
       inkscape:collect="always"
       xlink:href="#linear-gradient-2"
       id="linearGradient146768"
       x1="5.69"
       y1="28.55"
       x2="3.64"
       y2="26.5" />
    <linearGradient
       inkscape:collect="always"
       xlink:href="#linear-gradient-2"
       id="linearGradient147623"
       x1="43.04"
       y1="28.55"
       x2="41"
       y2="26.5" />
  </defs>
  <title
     id="title146676">13-Bezier</title>
  <g
     id="g148108">
    <line
       class="cls-5"
       x1="24.015619"
       y1="7.3046374"
       x2="44.781044"
       y2="7.3046374"
       id="line146683"
       style="isolation:isolate;stroke-width:1;stroke-miterlimit:10;stroke-dasharray:none;stroke:#ef2929" />
    <line
       class="cls-5"
       x1="24.015619"
       y1="7.3046374"
       x2="3.2384002"
       y2="7.3046374"
       id="line146687"
       style="isolation:isolate;stroke:#ef2929;stroke-width:1;stroke-miterlimit:10;stroke-dasharray:none" />
    <path
       class="cls-4"
       d="M 46.03098,26.91834 C 41.502914,19.490875 33.331171,7.304637 24.015618,7.304637 c -9.315552,0 -17.4990871,12.186238 -22.0271529,19.601894"
       id="path146681"
       style="isolation:isolate;stroke-width:2;stroke-miterlimit:10;stroke-dasharray:none;stroke:#92c8ff;stroke-opacity:1" />
    <ellipse
       class="cls-6"
       cx="44.781044"
       cy="7.3046374"
       id="circle146685"
       style="isolation:isolate;fill:#ef2929;stroke-width:1"
       rx="1.9207754"
       ry="1.9234682" />
    <polygon
       class="cls-20"
       points="3.82,29.52 6.66,26.68 3.82,26.68 "
       id="polygon146721"
       style="isolation:isolate;fill:url(#linearGradient146768);stroke-width:0.84745"
       transform="matrix(1.1791838,0,0,1.180837,-4.190458,-6.2867969)" />
    <rect
       class="cls-19"
       x="-26.372557"
       y="-9.6765823"
       width="4.7374587"
       height="4.7438903"
       transform="scale(-1)"
       id="rect146731"
       style="isolation:isolate;stroke-width:1" />
    <polygon
       class="cls-22"
       points="22.5,10.09 22.5,12.93 25.34,10.09 "
       id="polygon146733"
       style="isolation:isolate;fill:url(#linear-gradient-13);stroke-width:0.599071"
       transform="matrix(1.6681193,0,0,1.670384,-15.880907,-11.921483)" />
    <rect
       class="cls-21"
       x="-26.372557"
       y="-9.6765823"
       width="4.7374587"
       height="4.7438903"
       transform="scale(-1)"
       id="rect146735"
       style="isolation:isolate" />
    <rect
       class="cls-19"
       x="-47.841919"
       y="-29.20347"
       width="4.6112242"
       height="4.6174979"
       transform="scale(-1)"
       id="rect146737"
       style="isolation:isolate;stroke-width:1" />
    <polygon
       class="cls-23"
       points="41.17,29.52 44.01,26.68 41.17,26.68 "
       id="polygon146739"
       style="isolation:isolate;fill:url(#linear-gradient-14);stroke-width:0.61547"
       transform="matrix(1.6236706,0,0,1.6258796,-23.632059,-18.792496)" />
    <rect
       class="cls-21"
       x="-47.841919"
       y="-29.20347"
       width="4.6112242"
       height="4.6174979"
       transform="scale(-1)"
       id="rect146741"
       style="isolation:isolate" />
    <ellipse
       class="cls-6"
       cx="3.498879"
       cy="7.5088639"
       id="ellipse148019"
       style="isolation:isolate;fill:#ef2929;stroke-width:1"
       rx="1.9207754"
       ry="1.9234682" />
    <rect
       class="cls-19"
       x="-4.9191155"
       y="-29.20347"
       width="4.6112242"
       height="4.6174979"
       transform="scale(-1)"
       id="rect147617"
       style="isolation:isolate;stroke-width:1" />
    <polygon
       class="cls-23"
       points="44.01,26.68 41.17,26.68 41.17,29.52 "
       id="polygon147619"
       style="isolation:isolate;fill:url(#linearGradient147623);stroke-width:0.61547"
       transform="matrix(1.6236706,0,0,1.6258796,-66.554862,-18.792496)" />
    <rect
       class="cls-21"
       x="-4.9191155"
       y="-29.20347"
       width="4.6112242"
       height="4.6174979"
       transform="scale(-1)"
       id="rect147621"
       style="isolation:isolate" />
  </g>
  <g
     id="shadow"
     style="isolation:isolate;stroke-width:1.15232"
     transform="matrix(1,0,0,0.75309989,0.06374502,13.223294)">
    <ellipse
       class="cls-2"
       cx="24"
       cy="37.439999"
       rx="22.85"
       ry="8.6300001"
       id="ellipse146678"
       style="fill:url(#radial-gradient);stroke-width:1.15232" />
  </g>
  <g
     id="g148117"
     transform="matrix(1.0547954,0,0,1.0547985,-0.10102017,-0.31289397)"
     style="stroke-width:0.94805">
    <ellipse
       class="cls-6"
       cx="4.43329"
       cy="8.4301252"
       id="circle146689"
       style="isolation:isolate;stroke-width:0.94805"
       rx="1.1225108"
       ry="1.12251" />
    <path
       class="cls-7"
       d="M 23.385448,35.265944 11.494666,23.42738 A 38.896304,38.896274 0 0 0 9.2626965,17.188313 38.700517,38.700488 0 0 0 4.1722406,10.662093 C 3.5587754,10.048628 2.99752,10.153047 2.5537367,9.6962119 A 2.2189167,2.218915 0 0 1 2.0185862,8.4953873 L 4.6290764,5.8848991 A 2.2189167,2.218915 0 0 1 5.8690592,6.4592065 C 6.325895,6.9160419 6.2214754,7.4772969 6.8349406,8.0907616 a 38.883252,38.883222 0 0 0 6.5262254,5.0773994 38.896304,38.896274 0 0 0 6.186862,2.205863 l 11.903835,11.890773 z"
       id="path146691"
       style="isolation:isolate;fill:url(#linearGradient146760);stroke-width:0.94805" />
    <path
       class="cls-8"
       d="m 30.329352,28.322045 -2.793224,2.819327 -0.130525,0.10442 L 3.3499362,7.2293005 4.6551813,5.9240564 A 2.3494412,2.3494394 0 0 1 5.8690592,6.4592065 1.6446088,1.6446076 0 0 1 6.1301083,6.8116224 C 6.2345279,7.007409 6.2867377,7.2162481 6.3781048,7.4120347 a 0.91367157,0.91367087 0 0 0 0.1174721,0.2218915 1.5401892,1.540188 0 0 0 0.3263113,0.443783 L 6.9785176,8.2343385 7.2004092,8.4301251 Q 7.539773,8.7694886 8.061871,9.2132716 a 41.063011,41.062979 0 0 0 3.524162,2.8584844 l 0.443783,0.313259 a 9.6849186,9.6849112 0 0 0 1.305245,0.783146 l 0.365469,0.195787 h 0.09137 l 0.300206,0.117472 2.401651,0.939776 z"
       id="path146693"
       style="isolation:isolate;fill:url(#linearGradient146762);stroke-width:0.94805" />
    <path
       class="cls-9"
       d="M 25.708785,32.942609 24.40354,34.247853 10.567942,20.451423 A 27.188255,27.188235 0 0 0 9.2626965,17.175261 16.72019,16.720177 0 0 0 8.061871,15.334866 Z"
       id="path146695"
       style="isolation:isolate;fill:url(#linear-gradient-3);stroke-width:0.94805" />
    <line
       class="cls-10"
       x1="3.349936"
       y1="7.2293005"
       x2="16.493753"
       y2="20.386162"
       id="line146697"
       style="isolation:isolate;stroke:url(#linearGradient146764)" />
    <path
       class="cls-11"
       d="M 23.385448,35.265944 11.494666,23.42738 A 38.896304,38.896274 0 0 0 9.2626965,17.188313 38.700517,38.700488 0 0 0 4.1722406,10.662093 C 3.5587754,10.048628 2.99752,10.153047 2.5537367,9.6962119 A 2.2189167,2.218915 0 0 1 2.0185862,8.4953873 L 4.6290764,5.8848991 A 2.2189167,2.218915 0 0 1 5.8690592,6.4592065 C 6.325895,6.9160419 6.2214754,7.4772969 6.8349406,8.0907616 a 38.883252,38.883222 0 0 0 6.5262254,5.0773994 38.896304,38.896274 0 0 0 6.186862,2.205863 l 11.903835,11.890773 z"
       id="path146699"
       style="isolation:isolate;stroke:url(#linear-gradient-5)" />
    <ellipse
       class="cls-12"
       cx="16.493753"
       cy="20.386162"
       id="circle146701"
       style="isolation:isolate;stroke-width:0.94805"
       rx="1.997025"
       ry="1.9970235" />
  </g>
  <g
     id="g148017"
     transform="matrix(1.246675,0,0,1.2466786,-3.6773806,-4.8856894)"
     style="stroke-width:0.802133">
    <path
       class="cls-13"
       d="m 35.889697,31.389369 -3.485005,-3.498054 a 5.9388652,5.9388607 0 0 0 -8.392726,8.392719 l 3.524162,3.485002 c 0.522098,0.53515 2.832382,-0.913671 5.142666,-3.237005 2.310283,-2.323335 3.733001,-4.620565 3.210903,-5.142662 z"
       id="path146703"
       style="isolation:isolate;stroke-width:0.802133" />
    <path
       class="cls-14"
       d="m 36.137788,31.378279 -3.651143,-3.664816 a 6.2219867,6.2219819 0 0 0 -8.792831,8.792823 l 3.692169,3.651141 c 0.546988,0.560662 2.967409,-0.957227 5.38783,-3.39132 2.420422,-2.434097 3.910963,-4.84084 3.363975,-5.387828 z"
       id="path146705"
       style="isolation:isolate;fill:url(#linear-gradient-6);stroke-width:0.802133" />
    <path
       class="cls-13"
       d="m 28.230911,26.375361 a 5.7732757,5.7732713 0 0 1 4.067822,1.680186 l 3.373009,3.385639 c 0.505319,0.505318 -0.88431,2.741356 -3.132981,4.977393 -1.920215,1.932846 -3.853062,3.234042 -4.674206,3.234042 a 0.39162264,0.39162234 0 0 1 -0.303192,-0.101063 l -3.385641,-3.373006 a 5.7480097,5.7480054 0 0 1 4.055189,-9.803191 m 0,-0.884309 a 6.6323189,6.6323138 0 0 0 -4.674206,11.369681 l 3.373008,3.297208 a 1.2632988,1.2632979 0 0 0 0.934842,0.366356 c 1.718086,0 4.724737,-2.905585 5.305854,-3.486702 a 20.111718,20.111702 0 0 0 2.716093,-3.297208 c 0.353724,-0.568484 1.263299,-2.059175 0.404256,-2.943484 L 32.91775,27.423899 A 6.5944199,6.5944149 0 0 0 28.230911,25.47842 Z"
       id="path146707"
       style="isolation:isolate;fill:#183562;fill-opacity:1;stroke-width:0.802129" />
    <ellipse
       class="cls-13"
       cx="-2.7408504"
       cy="47.576473"
       rx="5.9258103"
       ry="1.3574543"
       transform="rotate(-44.999978)"
       id="ellipse146709"
       style="isolation:isolate;stroke-width:0.802133" />
    <path
       class="cls-15"
       d="m 28.410642,37.354334 6.526226,-3.445844 c 0.887566,-1.22693 1.305245,-2.205863 0.978933,-2.532174 -0.53515,-0.522097 -2.845434,0.926724 -5.155718,3.237006 a 19.408995,19.40898 0 0 0 -2.349441,2.741012 z"
       id="path146711"
       style="isolation:isolate;fill:url(#linearGradient146766);stroke-width:0.802133" />
    <path
       class="cls-16"
       d="m 27.536128,39.769036 c 0.53515,0.53515 2.845434,-0.913671 5.22098,-3.237005 a 19.683096,19.683081 0 0 0 2.245022,-2.610489 l -6.526226,3.445845 c -0.939776,1.161667 -1.292192,2.08839 -0.939776,2.401649 z"
       id="path146713"
       style="isolation:isolate;fill:url(#linear-gradient-8);stroke-width:0.802133" />
    <path
       class="cls-17"
       d="m 34.832448,31.454631 a 9.8284956,9.8284881 0 0 0 -1.983973,1.305244 l -2.258074,-2.284177 a 4.255099,4.2550958 0 0 0 -5.978022,0 4.1506794,4.1506762 0 0 0 -1.187773,3.458897 5.0904559,5.090452 0 0 1 8.288306,-5.599497 z"
       id="path146715"
       style="isolation:isolate;fill:url(#linear-gradient-9);stroke-width:0.802133" />
    <path
       class="cls-18"
       d="M 28.671691,36.975814 27.06624,35.357311 C 26.152568,34.456692 24.142491,33.9607 23.672602,34.430588 a 4.8555118,4.8555081 0 0 0 0.835357,1.109457 l 3.106484,3.106481 a 10.272279,10.272271 0 0 1 1.057248,-1.670712 z"
       id="path146717"
       style="isolation:isolate;fill:url(#linear-gradient-10);stroke-width:0.802133" />
  </g>
  <metadata
     id="metadata148579">
    <rdf:RDF>
      <cc:Work
         rdf:about="">
        <dc:title>13-Bezier</dc:title>
      </cc:Work>
    </rdf:RDF>
  </metadata>
</svg>
